<svg width="200" height="200" viewBox="0 0 200 200" fill="none" xmlns="http://www.w3.org/2000/svg">
  <rect width="200" height="200" rx="100" fill="#EAF3F1"/>
  <circle cx="100" cy="100" r="92" fill="#D8EAE6"/>
  <path d="M47 164C54 132 74 118 100 118C126 118 146 132 153 164" fill="#7CC0B3"/>
  <circle cx="100" cy="83" r="31" fill="#F2C7A6"/>
  <path d="M71 84C71 62 83 48 100 48C117 48 129 61 129 84V87H71V84Z" fill="#3D4D63"/>
  <path d="M78 72C84 63 92 58 100 58C108 58 116 63 122 72V87H78V72Z" fill="#243447"/>
  <circle cx="88" cy="83" r="3" fill="#243447"/>
  <circle cx="112" cy="83" r="3" fill="#243447"/>
  <path d="M93 96C96 99 104 99 107 96" stroke="#D08E74" stroke-width="3" stroke-linecap="round"/>
</svg>
